<svg xmlns="http://www.w3.org/2000/svg" viewBox="85 156 213 59" preserveAspectRatio="xMidYMid meet" version="1.1">
  <g transform="scale(0.178486)" fill="#9C1F1F" fill-rule="evenodd">
    <path d="M741 1192.42C723.45 1189.24 710.72 1181.4 702.21 1168.52C697.27 1161.04 695.71 1154.45 696.17 1143.03C696.51 1134.53 696.96 1132.52 699.86 1126.63C706.58 1112.98 720.35 1103.47 740.5 1098.55C755.42 1094.91 765.18 1094 789.12 1094C813.88 1094 812.02 1094.8 811.97 1084.17C811.89 1068.39 809.26 1057.21 803.99 1050.21C797.13 1041.12 785.07 1036.32 766.44 1035.26C750.31 1034.35 731.76 1040.05 719.7 1049.64C713.08 1054.91 712.37 1054.44 711.74 1044.32C711.44 1039.55 711.41 1035.1 711.67 1034.43C712.3 1032.78 722.1 1027.72 729.5 1025.21C745.36 1019.84 747.4 1019.56 770.5 1019.53C790.83 1019.5 793.07 1019.68 799.96 1021.84C812.75 1025.86 820.78 1030.53 828.69 1038.55C845.56 1055.65 847.62 1068.14 846.4 1145.75L845.72 1189L829.98 1189C811.65 1189 813.04 1190.04 813.01 1176.25C813.01 1171.71 812.75 1168 812.44 1168C812.14 1168 808.96 1170.93 805.37 1174.52C800.26 1179.63 796.66 1182.1 788.68 1185.97C772.92 1193.6 758.36 1195.57 741 1192.42ZM930.5 1193.31C916.58 1191.5 893.02 1184.25 887.08 1179.94L882.87 1176.9L883.56 1166.2C883.93 1160.31 884.53 1155.18 884.88 1154.79C885.24 1154.39 888.45 1156.12 892.01 1158.62C901.42 1165.2 917.28 1172.58 926.5 1174.65C937.18 1177.06 956.25 1177.06 964.25 1174.67C970.91 1172.67 979.38 1166.21 982.15 1161.02C986.13 1153.53 983.52 1139.95 977.22 1135.34C971.82 1131.4 964.3 1128.05 954 1125.01C914.39 1113.3 902.13 1107.75 893.03 1097.38C884.09 1087.2 880.51 1068.18 884.88 1054.12C890.03 1037.6 901.29 1027.97 922.77 1021.74C929.67 1019.74 932.7 1019.5 951 1019.52C967.77 1019.53 972.68 1019.86 978 1021.36C987.89 1024.14 998.68 1027.75 1002.54 1029.58L1006 1031.23L1006 1042.11C1006 1050.16 1005.67 1053 1004.75 1053C1004.06 1053 1000.8 1051.35 997.5 1049.35C980.74 1039.17 965.7 1034.67 948.5 1034.67C939.49 1034.68 936.45 1035.09 931.72 1036.92C924.47 1039.74 918.26 1044.46 915.85 1048.98C913.55 1053.31 913.39 1062.61 915.53 1067.73C920.2 1078.89 924.95 1081.34 963.75 1092.55C975.99 1096.08 988.69 1100.33 991.98 1101.99C999.44 1105.75 1008.9 1114.9 1012.32 1121.64C1017.17 1131.22 1017.56 1149.42 1013.13 1159.45C1003.34 1181.57 977.71 1194.23 943.5 1193.82C938 1193.75 932.15 1193.52 930.5 1193.31ZM1098.5 1193.34C1085.9 1191.38 1073.44 1184.92 1068.2 1177.63C1063.69 1171.35 1059.29 1161.12 1057.97 1153.85C1057.26 1149.89 1056.82 1129.59 1056.75 1097.2C1056.69 1069.43 1056.38 1045.09 1056.05 1043.11L1055.47 1039.5L1042.49 1039L1029.5 1038.5L1029.5 1031L1029.5 1023.5L1041 1022.88C1047.33 1022.54 1053.29 1022.2 1054.25 1022.13C1055.83 1022.01 1056 1020.58 1056.01 1007.25C1056.02 999.14 1056.29 991.52 1056.61 990.33C1056.93 989.14 1058.39 987.67 1059.85 987.08C1065.03 984.95 1089.46 978.16 1090.22 978.64C1090.65 978.9 1091 987.3 1091.01 997.31C1091.02 1007.31 1091.3 1017.18 1091.64 1019.23L1092.26 1022.97L1117.38 1023.23L1142.5 1023.5L1142.81 1028.95C1142.98 1031.94 1142.86 1035.42 1142.54 1036.68L1141.97 1038.97L1116.74 1039.23L1091.5 1039.5L1091.21 1087C1090.81 1153.2 1091.78 1161.37 1100.94 1169.21C1105.62 1173.23 1108.41 1174.01 1117.88 1173.98C1125.62 1173.95 1130.79 1171.93 1138.22 1166.01C1140.98 1163.82 1143.62 1162.27 1144.1 1162.56C1144.58 1162.86 1146.41 1165.18 1148.16 1167.73L1151.34 1172.36L1145.81 1177.5C1139.31 1183.56 1131.64 1188.09 1123.2 1190.86C1117.04 1192.88 1103.98 1194.19 1098.5 1193.34ZM1225 1192.93C1211.41 1190.54 1198.59 1184.38 1190.36 1176.28C1180.35 1166.42 1172.48 1148.4 1170.59 1131C1170.12 1126.69 1169.51 1032.23 1169.91 1024.73C1169.99 1023.09 1171.35 1022.97 1187.75 1023.23L1205.5 1023.5L1205.64 1078C1205.72 1111.19 1206.19 1134.96 1206.84 1138.79C1208.37 1147.84 1214 1158.95 1219.53 1163.82C1222.03 1166.02 1226.99 1168.98 1230.55 1170.41C1236.14 1172.65 1238.52 1173 1248.03 1173C1258.39 1173 1259.44 1172.81 1265.77 1169.76C1275.27 1165.19 1282.83 1157.43 1286.47 1148.5L1289.33 1141.5L1289.13 1084.74L1288.93 1027.98L1291.44 1025.46C1293.94 1022.97 1294.08 1022.95 1309.23 1023.22L1324.5 1023.5L1324.76 1106.28L1325.01 1189.05L1309.78 1188.78L1294.54 1188.5L1293.33 1181.5C1292.67 1177.65 1292.1 1172.59 1292.06 1170.25C1292.03 1167.91 1291.6 1166 1291.12 1166C1290.63 1166 1288.76 1167.91 1286.95 1170.25C1279.5 1179.91 1266.25 1188.36 1253.74 1191.43C1245.28 1193.52 1232.21 1194.2 1225 1192.93ZM1544.81 1191.98C1523.16 1188.58 1509.31 1180.22 1501.12 1165.6C1493.08 1151.25 1491.32 1138.87 1490.64 1092C1490.34 1071.38 1490.41 1047.53 1490.8 1039L1491.5 1023.5L1508.75 1023.23L1526 1022.95L1526.1 1027.73C1526.15 1030.35 1526.54 1058.15 1526.97 1089.5C1527.81 1150.19 1527.87 1150.9 1533.03 1161.56C1536.04 1167.78 1539.38 1171.55 1544.57 1174.59C1563.38 1185.62 1585.57 1182.05 1590.4 1167.22C1593.16 1158.74 1594.31 1137.38 1593.71 1106C1592.93 1066.06 1592.09 1063.1 1579.28 1054.97C1565.05 1045.93 1561.6 1043.33 1556.09 1037.43C1550.17 1031.1 1546.27 1024.02 1542.65 1013C1540.81 1007.41 1540.52 1004.2 1540.54 990C1540.57 971.59 1541.92 962.63 1547.73 942.5C1549.64 935.9 1552.1 927.35 1553.2 923.5C1554.3 919.65 1555.56 916.12 1556 915.65C1556.44 915.18 1575.83 914.83 1599.1 914.88C1633.61 914.94 1641.53 915.2 1642.15 916.31C1642.57 917.06 1644.07 922.47 1645.49 928.34C1646.9 934.22 1648.46 940.08 1648.96 941.38C1650.58 945.64 1654.92 968.3 1656.07 978.5C1656.7 984 1656.92 992.02 1656.57 996.33C1655.75 1006.49 1651.03 1021.11 1646.15 1028.59C1641.43 1035.82 1631.48 1045.45 1623.47 1050.53C1606.85 1061.06 1605.19 1064.19 1603.95 1087.46C1603.48 1096.23 1603.28 1108.61 1603.51 1114.96C1603.74 1121.31 1604.2 1134.99 1604.52 1145.36C1605.5 1176.26 1607.51 1178.71 1637.42 1185.45C1645.17 1187.19 1645.46 1187.35 1644.71 1189.32C1644.27 1190.47 1637.29 1190.83 1605.34 1191.36C1583.98 1191.71 1562.9 1192.19 1558.5 1192.43C1554.1 1192.67 1547.94 1192.47 1544.81 1191.98ZM506.75 1189.28C504.19 1188.9 504 1188.54 504 1184.01C504 1178.46 508.19 1156.48 510.61 1149.31C516.21 1132.73 524.76 1115.16 533.68 1101.9C544.34 1086.05 553.52 1075.87 598.48 1030C624.13 1003.83 633.31 993.86 645.09 979.4C656.24 965.72 703.07 912.85 713.88 901.75C719.1 896.39 724.12 892 725.03 892C729.12 892 733 900.58 733 909.61C733 925.02 723.94 945.31 708.94 963.5C691.76 984.33 676.5 996.87 656.14 1006.88C645.62 1012.05 637.18 1017.31 633 1021.3C631.62 1022.6 624.66 1030.16 617.51 1038.09C610.37 1046.01 601.49 1055.54 597.76 1059.26C594.04 1062.97 591 1066.44 591 1066.97C591 1068.74 613.25 1094.67 634.5 1117.66C640.55 1124.21 648.2 1132.69 651.5 1136.5C654.8 1140.32 661.13 1147.51 665.56 1152.47C678.08 1166.49 695 1186.89 695 1187.95C695 1189.71 688 1190.25 670.68 1189.82C656.37 1189.46 653.05 1189.09 650.79 1187.61C649.3 1186.63 644.37 1181.25 639.84 1175.66C630.07 1163.62 624.12 1156.61 610 1140.53C604.23 1133.95 598.38 1127.23 597 1125.61C595.62 1123.99 592.08 1119.93 589.12 1116.58C586.17 1113.24 580.88 1106.84 577.37 1102.36C573.87 1097.88 570.41 1093.99 569.69 1093.71C566.89 1092.64 552.42 1113.66 544.37 1130.49C537.4 1145.06 535.6 1153.67 535.54 1172.5C535.52 1181.96 535.09 1188.8 534.5 1189.23C533.47 1189.99 511.67 1190.03 506.75 1189.28ZM1367.45 1188.92C1367.08 1188.32 1366.62 1153.79 1366.41 1112.17C1366.21 1070.55 1365.79 1034.25 1365.48 1031.5C1364.58 1023.54 1365.14 1023.23 1381.65 1022.42L1395.81 1021.73L1397.36 1024.73C1398.21 1026.38 1399.69 1033.66 1400.64 1040.91L1402.36 1054.08L1405.59 1048.79C1413.47 1035.89 1420.62 1029.44 1433.94 1023.23C1440.44 1020.2 1442.65 1019.7 1451.52 1019.25C1461.92 1018.72 1467.71 1019.74 1470.01 1022.51C1471.39 1024.18 1469.74 1049.66 1468.15 1051.25C1467.53 1051.87 1464.71 1051.59 1460.34 1050.48C1454.95 1049.12 1451.11 1048.87 1442.22 1049.34C1432.3 1049.86 1430.13 1050.31 1424.32 1053.09C1416.23 1056.95 1410.46 1062.58 1406.5 1070.5L1403.5 1076.5L1403.21 1131.95C1403.01 1169.84 1402.58 1187.8 1401.84 1188.7C1400.44 1190.38 1368.48 1190.59 1367.45 1188.92ZM779.2 1173.63C790.7 1170.92 803.98 1160.81 809.09 1150.85C811.1 1146.95 811.37 1144.63 811.79 1128.48C812.16 1113.95 811.99 1110.24 810.88 1109.35C808.9 1107.77 764.17 1109.38 757.5 1111.27C745.51 1114.68 738.03 1120.55 733.63 1130C731.01 1135.62 730.6 1137.65 730.59 1145C730.58 1152.31 730.95 1154.2 733.25 1158.5C734.73 1161.25 736.73 1164.46 737.71 1165.64C740.27 1168.69 747.38 1172.89 751.76 1173.92C757.54 1175.28 772.87 1175.12 779.2 1173.63ZM507 1125.86C507 1116.26 508.75 1082.16 510.99 1048C512.57 1023.84 512.32 1013.26 509.99 1005.69C508.24 1000.04 507.2 998.51 502.19 994.16C492.32 985.62 488.15 974.3 489.31 959.23C491.18 935 497.11 891.49 498.77 889.83C501.64 886.96 501.9 890.56 501.3 925.78C500.74 958.67 500.82 961.61 502.39 962.91C506.31 966.16 506.78 963.37 507.95 929.5C509.11 895.87 509.59 889.37 510.94 888.53C513.24 887.12 513.78 892.77 514.42 924.5C514.8 943.2 515.35 959.48 515.64 960.68C515.94 961.88 516.74 963.07 517.43 963.34C520.88 964.66 521.1 962.78 521.8 925.49C522.29 899.62 522.84 888.55 523.63 888.29C525.55 887.65 526.07 890.84 527.04 908.97C529.84 961.26 530.55 966.66 534.12 962.35C535.24 961 535.5 953.89 535.5 924.93C535.5 905.26 535.86 888.81 536.3 888.37C537.76 886.9 538.69 890.01 539.89 900.32C540.54 905.92 541.5 912.75 542.02 915.5C543.75 924.54 545.99 952.27 546 964.57C546 981.17 544.82 984.32 534.88 994.35C528.15 1001.13 526.99 1002.82 526.3 1006.85C525.11 1013.8 525.72 1045.53 527.54 1071C528.43 1083.38 529.15 1094.23 529.15 1095.13C529.14 1096.02 527.02 1100.07 524.43 1104.11C519.27 1112.16 509 1132.49 509 1134.65C509 1135.39 508.55 1136 508 1136C507.4 1136 507 1131.95 507 1125.86ZM1612.25 1046.87C1625.27 1042.43 1636.4 1031.91 1644.34 1016.55L1648.5 1008.5L1648.5 992.5C1648.5 976.89 1648.03 972.67 1643.84 951C1641.53 939.01 1637.43 924.03 1636.11 922.71C1634.81 921.41 1562.93 921.82 1561.33 923.14C1560.01 924.24 1556.58 934.77 1553.07 948.5C1549.91 960.9 1547.01 979.73 1547.01 987.97C1547 998.14 1550.51 1014.13 1554.37 1021.46C1560.42 1032.98 1571.98 1042.88 1584.37 1047.16C1591.77 1049.72 1604.27 1049.59 1612.25 1046.87ZM1589.5 1042.38C1588.4 1042.1 1584.63 1040.53 1581.11 1038.89C1568.94 1033.21 1558.43 1019.83 1554.48 1004.95C1552.08 995.97 1552.92 975.68 1555.8 972.8C1556.37 972.23 1560.89 971.36 1565.84 970.86C1576.01 969.84 1577.77 970.13 1603.5 977C1621.15 981.71 1630.79 982.41 1638.79 979.58C1644.28 977.64 1644.35 977.82 1643.78 991.76C1642.88 1014.01 1632.56 1031.72 1616.06 1039.32C1610.55 1041.86 1608.06 1042.39 1600.5 1042.61C1595.55 1042.76 1590.6 1042.65 1589.5 1042.38ZM1580.82 1029.25C1573.74 1021.63 1566.21 1004.87 1564.35 992.58C1563.4 986.29 1562.36 984.93 1561.07 988.32C1558.89 994.05 1560.48 1004.12 1565.09 1013.74C1567.47 1018.71 1579.84 1032 1582.08 1032C1582.83 1032 1582.3 1030.84 1580.82 1029.25ZM588.56 1027.79C588.33 1027.08 587.96 1021.9 587.73 1016.29C587.45 1009.6 586.83 1005.5 585.92 1004.41C585.16 1003.49 581.79 1001.01 578.44 998.89C562.28 988.68 552.06 970.94 552.01 953C551.97 935.12 562.45 907.5 573.47 896.46C593.69 876.2 617.39 889.78 628.27 927.87C630.97 937.31 631.31 940.01 631.34 952C631.36 964.03 631.09 966.27 628.8 972.59C624.35 984.86 618.41 992.39 607.41 999.69L601.76 1003.44L602.28 1009.89L602.8 1016.33L597.67 1021.75C591.75 1028.01 589.17 1029.72 588.56 1027.79ZM1505.99 997.12C1490.48 992.08 1484.34 977.11 1492.93 965.26C1497.6 958.81 1502.26 956.5 1510.57 956.5C1516.62 956.5 1518.25 956.9 1521.81 959.26C1527.65 963.12 1531.25 968.93 1531.76 975.31C1532.83 988.65 1518.15 1001.07 1505.99 997.12ZM581 990.49C581 990.2 579.09 987.62 576.75 984.74C574.41 981.86 570.92 976.12 569 972L565.5 964.5L565.5 947.5C565.5 930.34 565.89 927.88 570.69 915C571.07 913.99 570.92 913.82 570.23 914.5C569.66 915.05 567.82 918.79 566.12 922.8C561.8 933.06 559.71 945.25 560.16 957.54C560.49 966.48 560.9 968.36 563.79 974.23C565.93 978.58 568.95 982.58 572.6 985.92C577.39 990.3 581 992.26 581 990.49Z"/>
  </g>
</svg>
