<svg xmlns="http://www.w3.org/2000/svg" viewBox="0 54 375 320" preserveAspectRatio="xMidYMid meet" version="1.1">
  <g transform="scale(0.178486)" fill="#9C1F1F" fill-rule="evenodd">
    <path d="M588.74 1284.63C579.91 1281.34 579 1278.95 579 1259.05L579 1243L581.5 1243L584 1243L584 1257.85C584 1271.6 584.17 1272.95 586.25 1276.03C590.06 1281.68 599.43 1282.37 604.14 1277.35C606.38 1274.97 606.52 1274.04 606.84 1258.86L607.18 1242.88L609.84 1243.19L612.5 1243.5L612.5 1259C612.5 1276.33 611.52 1279.62 605.31 1283.25C601.08 1285.72 593.4 1286.36 588.74 1284.63ZM733 1285.18C725.24 1283.07 721.16 1278.41 719.02 1269.25C718.06 1265.13 718.06 1262.87 719.01 1258.75C721.61 1247.5 727.32 1242.65 738.08 1242.56C746.06 1242.49 752 1245.12 752 1248.73C752 1251.38 750.96 1251.55 747.06 1249.53C739.35 1245.54 730.73 1247.12 727.03 1253.19C724 1258.16 724.14 1270.43 727.28 1275.1C731.23 1280.97 739.26 1282.23 747.55 1278.28C750.53 1276.86 751.26 1276.8 751.97 1277.95C752.43 1278.7 752.61 1279.85 752.36 1280.5C751.14 1283.67 738.61 1286.7 733 1285.18ZM772.32 1284.95C768.05 1283.65 763.42 1278.85 762.64 1274.94C762.29 1273.18 762 1265.28 762 1257.38L762 1243L764.41 1243L766.82 1243L767.16 1258.43C767.46 1272.22 767.72 1274.16 769.59 1276.68C773.95 1282.55 785.97 1281.75 788.86 1275.4C789.55 1273.89 790 1266.99 790 1257.89L790 1242.87L792.75 1243.18L795.5 1243.5L795.76 1256.5C796.08 1272.76 794.85 1278.22 790 1282.12C786.04 1285.3 777.78 1286.63 772.32 1284.95ZM831 1285.12C827.06 1284.28 822.84 1282.22 821.82 1280.65C821.45 1280.08 821.56 1278.81 822.08 1277.85C822.98 1276.17 823.19 1276.18 826.26 1277.96C830.25 1280.28 837.49 1281.35 841.5 1280.21C845.53 1279.07 847.8 1275.04 846.29 1271.73C845.41 1269.8 843.68 1268.88 838.33 1267.47C829.86 1265.24 824.38 1262.59 823.03 1260.06C822.47 1259 822 1256.35 822 1254.17C822 1243.84 837.44 1238.61 848.56 1245.17C852.25 1247.34 852.45 1247.73 851.08 1249.91C850.33 1251.1 849.33 1250.96 844.91 1249.06C838.2 1246.17 832.52 1246.69 829.25 1250.49C828.01 1251.93 827 1253.78 827 1254.6C827 1257.15 831.92 1260.81 836.31 1261.53C842.68 1262.58 850.5 1266.62 851.84 1269.54C854.16 1274.64 852.21 1280.26 847.06 1283.3C843.82 1285.22 835.75 1286.13 831 1285.12ZM1061.84 1285.1C1056.89 1284.08 1053 1281.38 1053 1278.98C1053 1276.55 1055.21 1276.43 1058.63 1278.68C1062.42 1281.16 1073.12 1281.11 1075.89 1278.6C1078.23 1276.48 1078.69 1271.82 1076.73 1270.19C1076.03 1269.61 1072.25 1268.25 1068.34 1267.16C1064.42 1266.08 1060.18 1264.63 1058.9 1263.95C1050.89 1259.66 1051.14 1249.37 1059.39 1244.39C1067.58 1239.45 1086.85 1244.65 1082 1250.5C1080.93 1251.78 1080.37 1251.69 1077.68 1249.77C1075.37 1248.13 1073.12 1247.55 1068.9 1247.53C1061.96 1247.49 1059 1249.61 1059 1254.63C1059 1258.54 1060.83 1259.71 1071.27 1262.45C1079.53 1264.62 1084 1268.31 1084 1272.95C1084 1277.26 1081.53 1281.67 1078.14 1283.43C1074.57 1285.28 1066.61 1286.09 1061.84 1285.1ZM1179.5 1285.12C1174.74 1283.89 1171.98 1281.78 1169.92 1277.79C1168.27 1274.6 1168 1271.9 1168 1258.54L1168 1243L1170.43 1243L1172.86 1243L1173.18 1258.43C1173.47 1272.25 1173.72 1274.15 1175.6 1276.67C1178.31 1280.29 1183.82 1281.67 1189.19 1280.06C1195.07 1278.3 1196 1275.23 1196 1257.53L1196 1243L1199 1243L1202 1243L1202 1257.79C1202 1271.15 1201.78 1273 1199.75 1276.98C1198.51 1279.4 1196.38 1282.18 1195 1283.15C1192.11 1285.2 1183.87 1286.24 1179.5 1285.12ZM1406.5 1285.07C1399.3 1283.34 1397 1280.64 1397 1273.93C1397 1270.32 1397.6 1269.14 1401.29 1265.44L1405.59 1261.15L1403.57 1258.38C1397.45 1249.98 1405.38 1239.66 1415.42 1242.97C1420.02 1244.49 1421.27 1246.25 1421.27 1251.2C1421.27 1254.71 1420.7 1255.88 1417.61 1258.72C1415.2 1260.93 1414.21 1262.53 1414.72 1263.41C1416.52 1266.47 1422.18 1272.16 1422.81 1271.54C1423.19 1271.17 1423.96 1268.53 1424.52 1265.68C1425.37 1261.35 1425.92 1260.44 1427.91 1260.16C1430.22 1259.83 1430.26 1259.96 1429.59 1265.07C1429.2 1267.95 1428.24 1271.57 1427.44 1273.11C1426.65 1274.64 1426 1276.14 1426 1276.44C1426 1276.73 1427.83 1278.13 1430.07 1279.55C1433.41 1281.65 1433.93 1282.38 1432.95 1283.56C1431.3 1285.55 1429.41 1285.36 1426.04 1282.87L1423.16 1280.74L1419.83 1282.75C1415.85 1285.15 1410.62 1286.06 1406.5 1285.07ZM527 1264.07L527 1243L529.47 1243C532.06 1243 533.06 1244.69 539.5 1260C544.57 1272.04 547.11 1277.05 547.9 1276.56C548.34 1276.29 549.44 1274.14 550.34 1271.78C551.25 1269.43 554.4 1262.1 557.35 1255.5C562.04 1245 563.01 1243.5 565.11 1243.5L567.5 1243.5L567.77 1264.25L568.04 1285L565.02 1285L562 1285L562 1271.8C562 1263.89 561.64 1258.98 561.1 1259.55C560.6 1260.07 557.82 1266.01 554.92 1272.75C550.46 1283.1 549.3 1285 547.45 1285C545.74 1285 544.74 1283.81 543.01 1279.75C541.78 1276.86 539.13 1270.9 537.13 1266.5L533.5 1258.5L533 1271.5L532.5 1284.5L529.75 1284.82L527 1285.13L527 1264.07ZM623 1264L623 1243L626 1243L629 1243L629 1261.47L629 1279.93L639.25 1280.22C649.02 1280.49 649.52 1280.61 649.82 1282.75C650.14 1284.99 650.07 1285 636.57 1285L623 1285L623 1264ZM659.77 1266.81L659.5 1248.5L652.5 1248C646.18 1247.55 645.47 1247.28 645.18 1245.25L644.86 1243L662.5 1243L680.14 1243L679.82 1245.25C679.53 1247.29 678.88 1247.53 672.77 1247.8L666.04 1248.09L665.77 1266.3L665.5 1284.5L662.77 1284.81L660.05 1285.13L659.77 1266.81ZM686.45 1283.72C686.18 1283.02 686.08 1273.68 686.23 1262.97L686.5 1243.5L689.25 1243.18L692 1242.87L692 1263.93L692 1285L689.47 1285C688.08 1285 686.72 1284.42 686.45 1283.72ZM806.45 1283.72C806.18 1283.02 806.08 1273.68 806.23 1262.97L806.5 1243.5L809.25 1243.18L812 1242.87L812 1263.93L812 1285L809.47 1285C808.08 1285 806.72 1284.42 806.45 1283.72ZM861 1264L861 1243L864 1243L867 1243L867 1264L867 1285L864 1285L861 1285L861 1264ZM878 1264L878 1243L880.31 1243C882.14 1243 885.16 1246.38 894.56 1258.96L906.5 1274.93L906.77 1258.96L907.05 1243L909.52 1243L912 1243L912 1264L912 1285L909.75 1284.95C908.03 1284.91 904.81 1281.26 896.08 1269.45C889.8 1260.95 884.29 1254 883.83 1254C883.37 1254 883 1260.97 883 1269.5L883 1285L880.5 1285L878 1285L878 1264ZM923.45 1283.72C923.18 1283.02 923.08 1273.68 923.23 1262.97L923.5 1243.5L937.32 1243.22L951.15 1242.94L950.82 1245.22C950.52 1247.39 950.06 1247.51 941 1247.7C935.77 1247.81 930.92 1247.92 930.2 1247.95C929.25 1247.99 928.98 1249.66 929.2 1254.25L929.5 1260.5L939.5 1261C948.67 1261.46 949.5 1261.67 949.5 1263.5C949.5 1265.35 948.74 1265.52 939.25 1265.78L929 1266.07L929 1273L929 1279.93L939.75 1280.22C950.04 1280.49 950.51 1280.6 950.82 1282.75C951.14 1284.99 951.07 1285 937.54 1285C927.41 1285 923.81 1284.67 923.45 1283.72ZM976.23 1264.25L976.5 1243.5L987.74 1243.22C996.36 1243 999.67 1243.3 1001.97 1244.48C1008.77 1248 1009.93 1258.16 1004.09 1263.06C1001.45 1265.27 1001.23 1265.8 1002.46 1267.06C1003.55 1268.16 1010 1283.29 1010 1284.73C1010 1284.88 1008.7 1285 1007.1 1285C1004.41 1285 1004.01 1284.48 1001.49 1277.55C997.89 1267.7 996.82 1266.82 988.87 1267.2L982.5 1267.5L982.21 1276.25L981.92 1285L978.94 1285L975.96 1285L976.23 1264.25ZM1019 1264L1019 1243L1032.5 1243C1045.08 1243 1046 1243.13 1046 1244.89C1046 1247.59 1043.75 1248.14 1033.52 1247.91L1024.5 1247.71L1024.21 1254.32L1023.91 1260.93L1034.21 1261.21C1044.02 1261.49 1044.51 1261.6 1044.82 1263.75C1045.13 1265.96 1044.96 1266 1034.53 1266L1023.91 1266L1024.21 1273.1L1024.5 1280.21L1035 1280.35C1045.08 1280.49 1045.51 1280.59 1045.82 1282.75C1046.14 1284.99 1046.07 1285 1032.57 1285L1019 1285L1019 1264ZM1102 1266.61L1102 1248.09L1094.75 1247.79C1088.1 1247.52 1087.47 1247.31 1087.18 1245.25L1086.86 1243L1104.5 1243L1122.14 1243L1121.82 1245.25C1121.53 1247.28 1120.82 1247.55 1114.5 1248L1107.5 1248.5L1107.32 1266.5L1107.15 1284.5L1104.57 1284.82L1102 1285.13L1102 1266.61ZM1120 1284.24C1120 1283.6 1127.8 1265.64 1132.47 1255.5C1133.24 1253.85 1134.77 1250.36 1135.89 1247.75C1137.55 1243.89 1138.4 1243 1140.44 1243C1143.24 1243 1142.3 1241.28 1153.9 1267.61C1157.81 1276.48 1161 1284.01 1161 1284.36C1161 1284.71 1159.75 1285 1158.22 1285C1155.81 1285 1155.18 1284.34 1153.52 1280.06L1151.61 1275.12L1141.23 1274.81C1130.05 1274.48 1129.02 1274.87 1127.5 1280C1127.09 1281.38 1126.31 1283.06 1125.76 1283.75C1124.68 1285.09 1120 1285.5 1120 1284.24ZM1213 1264L1213 1243L1224.93 1243L1236.86 1243L1240.43 1246.37C1243.52 1249.28 1244 1250.36 1244 1254.33C1244 1258.06 1243.41 1259.61 1240.87 1262.49C1238.01 1265.75 1237.88 1266.21 1239.29 1267.78C1240.74 1269.39 1246 1282.19 1246 1284.12C1246 1284.6 1244.74 1285 1243.2 1285C1240.62 1285 1240.19 1284.4 1237.47 1276.91C1235.85 1272.46 1233.72 1268.39 1232.74 1267.86C1231.76 1267.34 1228.15 1267.04 1224.73 1267.2L1218.5 1267.5L1218.21 1276.25C1217.93 1284.8 1217.87 1285 1215.46 1285L1213 1285L1213 1264ZM1251 1284.13C1251 1283.65 1253.95 1276.56 1257.55 1268.38C1268.82 1242.8 1268.71 1243 1271.32 1243C1273.79 1243 1275.03 1245.25 1283.5 1265C1285.26 1269.12 1287.9 1275.1 1289.36 1278.28C1290.81 1281.46 1292 1284.27 1292 1284.53C1292 1284.79 1290.74 1285 1289.2 1285C1286.78 1285 1286.1 1284.31 1284.28 1280L1282.17 1275L1271.22 1275L1260.27 1275L1258.19 1280C1256.46 1284.15 1255.68 1285 1253.56 1285C1252.15 1285 1251 1284.61 1251 1284.13ZM1299 1264.07L1299 1243L1301.35 1243C1303.22 1243 1306.18 1246.26 1315.6 1258.66L1327.5 1274.32L1327.78 1258.59L1328.05 1242.87L1330.78 1243.19L1333.5 1243.5L1333.5 1264C1333.5 1284.4 1333.49 1284.5 1331.29 1284.81C1329.45 1285.08 1327.04 1282.37 1317.29 1269.13C1310.8 1260.32 1305.28 1253.09 1305 1253.06C1304.72 1253.03 1304.5 1260.09 1304.5 1268.75L1304.5 1284.5L1301.75 1284.82L1299 1285.13L1299 1264.07ZM1355 1266.57L1355 1248L1348.12 1248C1342.14 1248 1341.17 1247.74 1340.73 1246.06C1340.45 1244.99 1340.47 1243.86 1340.78 1243.56C1341.08 1243.25 1348.94 1243 1358.24 1243L1375.14 1243L1374.82 1245.25C1374.53 1247.29 1373.88 1247.53 1367.77 1247.8L1361.04 1248.09L1360.77 1266.3L1360.5 1284.5L1357.75 1284.82L1355 1285.13L1355 1266.57ZM1456.45 1283.72C1456.18 1283.02 1456.08 1273.68 1456.23 1262.97L1456.5 1243.5L1467.74 1243.22C1480.88 1242.89 1484.29 1244.05 1486.64 1249.67C1488.44 1253.99 1487.7 1258 1484.54 1260.97L1482.17 1263.18L1485.17 1265.86C1487.68 1268.1 1488.17 1269.29 1488.17 1273.15C1488.17 1282.72 1484.39 1285 1468.56 1285C1460.04 1285 1456.81 1284.66 1456.45 1283.72ZM1494 1284.66C1494 1284.11 1499.62 1270.9 1503 1263.5C1504.26 1260.75 1506.73 1255.12 1508.49 1251C1511.38 1244.25 1511.97 1243.5 1514.46 1243.5C1517.08 1243.5 1517.62 1244.42 1525.1 1261.5C1529.44 1271.4 1533.44 1280.28 1533.99 1281.24C1535.6 1284 1535.18 1285 1532.44 1285C1530.32 1285 1529.49 1284.13 1527.69 1280.02L1525.5 1275.05L1514.74 1275.02L1503.98 1275L1501.73 1279.75C1499.96 1283.5 1498.9 1284.57 1496.74 1284.82C1495.23 1284.99 1494 1284.92 1494 1284.66ZM1542.45 1283.72C1542.18 1283.02 1542.08 1273.68 1542.23 1262.97L1542.5 1243.5L1554 1243.24C1563.92 1243.01 1565.93 1243.24 1568.65 1244.91C1574.64 1248.6 1575.56 1258.84 1570.27 1263C1567.71 1265.01 1567.68 1265.18 1569.23 1267.82C1570.62 1270.17 1576 1283.52 1576 1284.62C1576 1284.83 1574.65 1285 1573 1285C1571.35 1285 1570 1284.89 1570 1284.75C1570 1284.61 1568.87 1281.37 1567.49 1277.56C1563.91 1267.7 1563.07 1267 1554.85 1267L1548 1267L1548 1276C1548 1284.96 1547.99 1285 1545.47 1285C1544.08 1285 1542.72 1284.42 1542.45 1283.72ZM1416 1279.71C1419.62 1277.88 1419.12 1275.83 1413.65 1270.05C1408.44 1264.56 1407.94 1264.53 1403.77 1269.46C1398.05 1276.22 1407.4 1284.06 1416 1279.71ZM1481.17 1278.35C1483.97 1275.81 1483.56 1270.59 1480.37 1268.07C1478.21 1266.37 1476.31 1266 1469.87 1266L1462 1266L1462 1273L1462 1280L1470.67 1280C1477.34 1280 1479.77 1279.62 1481.17 1278.35ZM1149 1269.59C1149 1268.59 1141.78 1252.41 1140.97 1251.59C1140.1 1250.71 1138.41 1254 1133.92 1265.25L1132.03 1270L1140.51 1270C1145.18 1270 1149 1269.81 1149 1269.59ZM1278.39 1266.25C1277.55 1264.19 1276.09 1260.7 1275.13 1258.5C1274.16 1256.3 1272.92 1253.41 1272.37 1252.07C1271.38 1249.68 1271.34 1249.7 1269.78 1253.57C1268.92 1255.73 1267.04 1260.06 1265.6 1263.19C1264.17 1266.31 1263 1269.13 1263 1269.44C1263 1269.75 1266.8 1270 1271.45 1270L1279.9 1270L1278.39 1266.25ZM1523 1269.67C1523 1269.24 1514.9 1250.58 1514.57 1250.24C1514.36 1250.03 1509.86 1260.12 1506.3 1268.75C1505.91 1269.69 1507.9 1270 1514.39 1270C1519.13 1270 1523 1269.85 1523 1269.67ZM999.78 1260.44C1001.41 1259.3 1002 1257.88 1002 1255.1C1002 1249.51 999.98 1248.24 990.5 1247.85L982.5 1247.52L982.21 1254.76L981.91 1262L989.73 1262C995.19 1262 998.23 1261.53 999.78 1260.44ZM1236.09 1260.13C1238.69 1258.03 1239.31 1251.91 1237.15 1249.75C1236.01 1248.61 1221.31 1247.06 1218.99 1247.83C1218.45 1248.02 1218 1251.28 1218 1255.08L1218 1262L1225.89 1262C1232.11 1262 1234.27 1261.6 1236.09 1260.13ZM1565.78 1260.44C1568.59 1258.47 1568.87 1252.1 1566.25 1249.73C1564.74 1248.36 1556.47 1247.49 1549.25 1247.92C1548.38 1247.98 1548 1250.11 1548 1255L1548 1262L1555.78 1262C1561.2 1262 1564.23 1261.53 1565.78 1260.44ZM1480 1259C1481.1 1257.9 1482 1255.72 1482 1254.15C1482 1249.59 1479.5 1248.22 1470.5 1247.85L1462.5 1247.52L1462.2 1254.26L1461.91 1261L1469.95 1261C1476.67 1261 1478.33 1260.67 1480 1259ZM1415.8 1251.14C1415.54 1247.98 1415.13 1247.46 1412.69 1247.18C1411.14 1247 1409.23 1247.39 1408.44 1248.05C1406.54 1249.63 1406.61 1253.99 1408.57 1256.8L1410.14 1259.04L1413.12 1256.91C1415.64 1255.12 1416.06 1254.22 1415.8 1251.14ZM741 1192.42C723.45 1189.24 710.72 1181.4 702.21 1168.52C697.27 1161.04 695.71 1154.45 696.17 1143.03C696.51 1134.53 696.96 1132.52 699.86 1126.63C706.58 1112.98 720.35 1103.47 740.5 1098.55C755.42 1094.91 765.18 1094 789.12 1094C813.88 1094 812.02 1094.8 811.97 1084.17C811.89 1068.39 809.26 1057.21 803.99 1050.21C797.13 1041.12 785.07 1036.32 766.44 1035.26C750.31 1034.35 731.76 1040.05 719.7 1049.64C713.08 1054.91 712.37 1054.44 711.74 1044.32C711.44 1039.55 711.41 1035.1 711.67 1034.43C712.3 1032.78 722.1 1027.72 729.5 1025.21C745.36 1019.84 747.4 1019.56 770.5 1019.53C790.83 1019.5 793.07 1019.68 799.96 1021.84C812.75 1025.86 820.78 1030.53 828.69 1038.55C845.56 1055.65 847.62 1068.14 846.4 1145.75L845.72 1189L829.98 1189C811.65 1189 813.04 1190.04 813.01 1176.25C813.01 1171.71 812.75 1168 812.44 1168C812.14 1168 808.96 1170.93 805.37 1174.52C800.26 1179.63 796.66 1182.1 788.68 1185.97C772.92 1193.6 758.36 1195.57 741 1192.42ZM930.5 1193.31C916.58 1191.5 893.02 1184.25 887.08 1179.94L882.87 1176.9L883.56 1166.2C883.93 1160.31 884.53 1155.18 884.88 1154.79C885.24 1154.39 888.45 1156.12 892.01 1158.62C901.42 1165.2 917.28 1172.58 926.5 1174.65C937.18 1177.06 956.25 1177.06 964.25 1174.67C970.91 1172.67 979.38 1166.21 982.15 1161.02C986.13 1153.53 983.52 1139.95 977.22 1135.34C971.82 1131.4 964.3 1128.05 954 1125.01C914.39 1113.3 902.13 1107.75 893.03 1097.38C884.09 1087.2 880.51 1068.18 884.88 1054.12C890.03 1037.6 901.29 1027.97 922.77 1021.74C929.67 1019.74 932.7 1019.5 951 1019.52C967.77 1019.53 972.68 1019.86 978 1021.36C987.89 1024.14 998.68 1027.75 1002.54 1029.58L1006 1031.23L1006 1042.11C1006 1050.16 1005.67 1053 1004.75 1053C1004.06 1053 1000.8 1051.35 997.5 1049.35C980.74 1039.17 965.7 1034.67 948.5 1034.67C939.49 1034.68 936.45 1035.09 931.72 1036.92C924.47 1039.74 918.26 1044.46 915.85 1048.98C913.55 1053.31 913.39 1062.61 915.53 1067.73C920.2 1078.89 924.95 1081.34 963.75 1092.55C975.99 1096.08 988.69 1100.33 991.98 1101.99C999.44 1105.75 1008.9 1114.9 1012.32 1121.64C1017.17 1131.22 1017.56 1149.42 1013.13 1159.45C1003.34 1181.57 977.71 1194.23 943.5 1193.82C938 1193.75 932.15 1193.52 930.5 1193.31ZM1098.5 1193.34C1085.9 1191.38 1073.44 1184.92 1068.2 1177.63C1063.69 1171.35 1059.29 1161.12 1057.97 1153.85C1057.26 1149.89 1056.82 1129.59 1056.75 1097.2C1056.69 1069.43 1056.38 1045.09 1056.05 1043.11L1055.47 1039.5L1042.49 1039L1029.5 1038.5L1029.5 1031L1029.5 1023.5L1041 1022.88C1047.33 1022.54 1053.29 1022.2 1054.25 1022.13C1055.83 1022.01 1056 1020.58 1056.01 1007.25C1056.02 999.14 1056.29 991.52 1056.61 990.33C1056.93 989.14 1058.39 987.67 1059.85 987.08C1065.03 984.95 1089.46 978.16 1090.22 978.64C1090.65 978.9 1091 987.3 1091.01 997.31C1091.02 1007.31 1091.3 1017.18 1091.64 1019.23L1092.26 1022.97L1117.38 1023.23L1142.5 1023.5L1142.81 1028.95C1142.98 1031.94 1142.86 1035.42 1142.54 1036.68L1141.97 1038.97L1116.74 1039.23L1091.5 1039.5L1091.21 1087C1090.81 1153.2 1091.78 1161.37 1100.94 1169.21C1105.62 1173.23 1108.41 1174.01 1117.88 1173.98C1125.62 1173.95 1130.79 1171.93 1138.22 1166.01C1140.98 1163.82 1143.62 1162.27 1144.1 1162.56C1144.58 1162.86 1146.41 1165.18 1148.16 1167.73L1151.34 1172.36L1145.81 1177.5C1139.31 1183.56 1131.64 1188.09 1123.2 1190.86C1117.04 1192.88 1103.98 1194.19 1098.5 1193.34ZM1225 1192.93C1211.41 1190.54 1198.59 1184.38 1190.36 1176.28C1180.35 1166.42 1172.48 1148.4 1170.59 1131C1170.12 1126.69 1169.51 1032.23 1169.91 1024.73C1169.99 1023.09 1171.35 1022.97 1187.75 1023.23L1205.5 1023.5L1205.64 1078C1205.72 1111.19 1206.19 1134.96 1206.84 1138.79C1208.37 1147.84 1214 1158.95 1219.53 1163.82C1222.03 1166.02 1226.99 1168.98 1230.55 1170.41C1236.14 1172.65 1238.52 1173 1248.03 1173C1258.39 1173 1259.44 1172.81 1265.77 1169.76C1275.27 1165.19 1282.83 1157.43 1286.47 1148.5L1289.33 1141.5L1289.13 1084.74L1288.93 1027.98L1291.44 1025.46C1293.94 1022.97 1294.08 1022.95 1309.23 1023.22L1324.5 1023.5L1324.76 1106.28L1325.01 1189.05L1309.78 1188.78L1294.54 1188.5L1293.33 1181.5C1292.67 1177.65 1292.1 1172.59 1292.06 1170.25C1292.03 1167.91 1291.6 1166 1291.12 1166C1290.63 1166 1288.76 1167.91 1286.95 1170.25C1279.5 1179.91 1266.25 1188.36 1253.74 1191.43C1245.28 1193.52 1232.21 1194.2 1225 1192.93ZM1544.81 1191.98C1523.16 1188.58 1509.31 1180.22 1501.12 1165.6C1493.08 1151.25 1491.32 1138.87 1490.64 1092C1490.34 1071.38 1490.41 1047.53 1490.8 1039L1491.5 1023.5L1508.75 1023.23L1526 1022.95L1526.1 1027.73C1526.15 1030.35 1526.54 1058.15 1526.97 1089.5C1527.81 1150.19 1527.87 1150.9 1533.03 1161.56C1536.04 1167.78 1539.38 1171.55 1544.57 1174.59C1563.38 1185.62 1585.57 1182.05 1590.4 1167.22C1593.16 1158.74 1594.31 1137.38 1593.71 1106C1592.93 1066.06 1592.09 1063.1 1579.28 1054.97C1565.05 1045.93 1561.6 1043.33 1556.09 1037.43C1550.17 1031.1 1546.27 1024.02 1542.65 1013C1540.81 1007.41 1540.52 1004.2 1540.54 990C1540.57 971.59 1541.92 962.63 1547.73 942.5C1549.64 935.9 1552.1 927.35 1553.2 923.5C1554.3 919.65 1555.56 916.12 1556 915.65C1556.44 915.18 1575.83 914.83 1599.1 914.88C1633.61 914.94 1641.53 915.2 1642.15 916.31C1642.57 917.06 1644.07 922.47 1645.49 928.34C1646.9 934.22 1648.46 940.08 1648.96 941.38C1650.58 945.64 1654.92 968.3 1656.07 978.5C1656.7 984 1656.92 992.02 1656.57 996.33C1655.75 1006.49 1651.03 1021.11 1646.15 1028.59C1641.43 1035.82 1631.48 1045.45 1623.47 1050.53C1606.85 1061.06 1605.19 1064.19 1603.95 1087.46C1603.48 1096.23 1603.28 1108.61 1603.51 1114.96C1603.74 1121.31 1604.2 1134.99 1604.52 1145.36C1605.5 1176.26 1607.51 1178.71 1637.42 1185.45C1645.17 1187.19 1645.46 1187.35 1644.71 1189.32C1644.27 1190.47 1637.29 1190.83 1605.34 1191.36C1583.98 1191.71 1562.9 1192.19 1558.5 1192.43C1554.1 1192.67 1547.94 1192.47 1544.81 1191.98ZM506.75 1189.28C504.19 1188.9 504 1188.54 504 1184.01C504 1178.46 508.19 1156.48 510.61 1149.31C516.21 1132.73 524.76 1115.16 533.68 1101.9C544.34 1086.05 553.52 1075.87 598.48 1030C624.13 1003.83 633.31 993.86 645.09 979.4C656.24 965.72 703.07 912.85 713.88 901.75C719.1 896.39 724.12 892 725.03 892C729.12 892 733 900.58 733 909.61C733 925.02 723.94 945.31 708.94 963.5C691.76 984.33 676.5 996.87 656.14 1006.88C645.62 1012.05 637.18 1017.31 633 1021.3C631.62 1022.6 624.66 1030.16 617.51 1038.09C610.37 1046.01 601.49 1055.54 597.76 1059.26C594.04 1062.97 591 1066.44 591 1066.97C591 1068.74 613.25 1094.67 634.5 1117.66C640.55 1124.21 648.2 1132.69 651.5 1136.5C654.8 1140.32 661.13 1147.51 665.56 1152.47C678.08 1166.49 695 1186.89 695 1187.95C695 1189.71 688 1190.25 670.68 1189.82C656.37 1189.46 653.05 1189.09 650.79 1187.61C649.3 1186.63 644.37 1181.25 639.84 1175.66C630.07 1163.62 624.12 1156.61 610 1140.53C604.23 1133.95 598.38 1127.23 597 1125.61C595.62 1123.99 592.08 1119.93 589.12 1116.58C586.17 1113.24 580.88 1106.84 577.37 1102.36C573.87 1097.88 570.41 1093.99 569.69 1093.71C566.89 1092.64 552.42 1113.66 544.37 1130.49C537.4 1145.06 535.6 1153.67 535.54 1172.5C535.52 1181.96 535.09 1188.8 534.5 1189.23C533.47 1189.99 511.67 1190.03 506.75 1189.28ZM1367.45 1188.92C1367.08 1188.32 1366.62 1153.79 1366.41 1112.17C1366.21 1070.55 1365.79 1034.25 1365.48 1031.5C1364.58 1023.54 1365.14 1023.23 1381.65 1022.42L1395.81 1021.73L1397.36 1024.73C1398.21 1026.38 1399.69 1033.66 1400.64 1040.91L1402.36 1054.08L1405.59 1048.79C1413.47 1035.89 1420.62 1029.44 1433.94 1023.23C1440.44 1020.2 1442.65 1019.7 1451.52 1019.25C1461.92 1018.72 1467.71 1019.74 1470.01 1022.51C1471.39 1024.18 1469.74 1049.66 1468.15 1051.25C1467.53 1051.87 1464.71 1051.59 1460.34 1050.48C1454.95 1049.12 1451.11 1048.87 1442.22 1049.34C1432.3 1049.86 1430.13 1050.31 1424.32 1053.09C1416.23 1056.95 1410.46 1062.58 1406.5 1070.5L1403.5 1076.5L1403.21 1131.95C1403.01 1169.84 1402.58 1187.8 1401.84 1188.7C1400.44 1190.38 1368.48 1190.59 1367.45 1188.92ZM779.2 1173.63C790.7 1170.92 803.98 1160.81 809.09 1150.85C811.1 1146.95 811.37 1144.63 811.79 1128.48C812.16 1113.95 811.99 1110.24 810.88 1109.35C808.9 1107.77 764.17 1109.38 757.5 1111.27C745.51 1114.68 738.03 1120.55 733.63 1130C731.01 1135.62 730.6 1137.65 730.59 1145C730.58 1152.31 730.95 1154.2 733.25 1158.5C734.73 1161.25 736.73 1164.46 737.71 1165.64C740.27 1168.69 747.38 1172.89 751.76 1173.92C757.54 1175.28 772.87 1175.12 779.2 1173.63ZM507 1125.86C507 1116.26 508.75 1082.16 510.99 1048C512.57 1023.84 512.32 1013.26 509.99 1005.69C508.24 1000.04 507.2 998.51 502.19 994.16C492.32 985.62 488.15 974.3 489.31 959.23C491.18 935 497.11 891.49 498.77 889.83C501.64 886.96 501.9 890.56 501.3 925.78C500.74 958.67 500.82 961.61 502.39 962.91C506.31 966.16 506.78 963.37 507.95 929.5C509.11 895.87 509.59 889.37 510.94 888.53C513.24 887.12 513.78 892.77 514.42 924.5C514.8 943.2 515.35 959.48 515.64 960.68C515.94 961.88 516.74 963.07 517.43 963.34C520.88 964.66 521.1 962.78 521.8 925.49C522.29 899.62 522.84 888.55 523.63 888.29C525.55 887.65 526.07 890.84 527.04 908.97C529.84 961.26 530.55 966.66 534.12 962.35C535.24 961 535.5 953.89 535.5 924.93C535.5 905.26 535.86 888.81 536.3 888.37C537.76 886.9 538.69 890.01 539.89 900.32C540.54 905.92 541.5 912.75 542.02 915.5C543.75 924.54 545.99 952.27 546 964.57C546 981.17 544.82 984.32 534.88 994.35C528.15 1001.13 526.99 1002.82 526.3 1006.85C525.11 1013.8 525.72 1045.53 527.54 1071C528.43 1083.38 529.15 1094.23 529.15 1095.13C529.14 1096.02 527.02 1100.07 524.43 1104.11C519.27 1112.16 509 1132.49 509 1134.65C509 1135.39 508.55 1136 508 1136C507.4 1136 507 1131.95 507 1125.86ZM1612.25 1046.87C1625.27 1042.43 1636.4 1031.91 1644.34 1016.55L1648.5 1008.5L1648.5 992.5C1648.5 976.89 1648.03 972.67 1643.84 951C1641.53 939.01 1637.43 924.03 1636.11 922.71C1634.81 921.41 1562.93 921.82 1561.33 923.14C1560.01 924.24 1556.58 934.77 1553.07 948.5C1549.91 960.9 1547.01 979.73 1547.01 987.97C1547 998.14 1550.51 1014.13 1554.37 1021.46C1560.42 1032.98 1571.98 1042.88 1584.37 1047.16C1591.77 1049.72 1604.27 1049.59 1612.25 1046.87ZM1589.5 1042.38C1588.4 1042.1 1584.63 1040.53 1581.11 1038.89C1568.94 1033.21 1558.43 1019.83 1554.48 1004.95C1552.08 995.97 1552.92 975.68 1555.8 972.8C1556.37 972.23 1560.89 971.36 1565.84 970.86C1576.01 969.84 1577.77 970.13 1603.5 977C1621.15 981.71 1630.79 982.41 1638.79 979.58C1644.28 977.64 1644.35 977.82 1643.78 991.76C1642.88 1014.01 1632.56 1031.72 1616.06 1039.32C1610.55 1041.86 1608.06 1042.39 1600.5 1042.61C1595.55 1042.76 1590.6 1042.65 1589.5 1042.38ZM1580.82 1029.25C1573.74 1021.63 1566.21 1004.87 1564.35 992.58C1563.4 986.29 1562.36 984.93 1561.07 988.32C1558.89 994.05 1560.48 1004.12 1565.09 1013.74C1567.47 1018.71 1579.84 1032 1582.08 1032C1582.83 1032 1582.3 1030.84 1580.82 1029.25ZM588.56 1027.79C588.33 1027.08 587.96 1021.9 587.73 1016.29C587.45 1009.6 586.83 1005.5 585.92 1004.41C585.16 1003.49 581.79 1001.01 578.44 998.89C562.28 988.68 552.06 970.94 552.01 953C551.97 935.12 562.45 907.5 573.47 896.46C593.69 876.2 617.39 889.78 628.27 927.87C630.97 937.31 631.31 940.01 631.34 952C631.36 964.03 631.09 966.27 628.8 972.59C624.35 984.86 618.41 992.39 607.41 999.69L601.76 1003.44L602.28 1009.89L602.8 1016.33L597.67 1021.75C591.75 1028.01 589.17 1029.72 588.56 1027.79ZM1505.99 997.12C1490.48 992.08 1484.34 977.11 1492.93 965.26C1497.6 958.81 1502.26 956.5 1510.57 956.5C1516.62 956.5 1518.25 956.9 1521.81 959.26C1527.65 963.12 1531.25 968.93 1531.76 975.31C1532.83 988.65 1518.15 1001.07 1505.99 997.12ZM581 990.49C581 990.2 579.09 987.62 576.75 984.74C574.41 981.86 570.92 976.12 569 972L565.5 964.5L565.5 947.5C565.5 930.34 565.89 927.88 570.69 915C571.07 913.99 570.92 913.82 570.23 914.5C569.66 915.05 567.82 918.79 566.12 922.8C561.8 933.06 559.71 945.25 560.16 957.54C560.49 966.48 560.9 968.36 563.79 974.23C565.93 978.58 568.95 982.58 572.6 985.92C577.39 990.3 581 992.26 581 990.49Z"/>
  </g>
</svg>
